<svg width="99" height="29" viewBox="0 0 99 29" fill="none" xmlns="http://www.w3.org/2000/svg">
<path d="M16.8785 13.4621V0.27478H22.4438C22.5657 0.27478 22.7487 0.27478 22.9622 0.290043C23.1756 0.305307 23.3738 0.32057 23.5416 0.351096C24.3344 0.473201 24.9748 0.732675 25.478 1.12952C25.9811 1.52636 26.347 2.03004 26.591 2.62531C26.835 3.22057 26.9417 3.89215 26.9417 4.64004C26.9417 5.73899 26.6672 6.68531 26.1183 7.47899C25.5694 8.25741 24.7156 8.74583 23.5416 8.92899L22.4438 9.00531H19.3638V13.4774H16.8785V13.4621ZM19.3638 6.67004H22.3218C22.4438 6.67004 22.5962 6.67004 22.7487 6.65478C22.9012 6.63952 23.0384 6.62425 23.1756 6.57847C23.5111 6.48689 23.7703 6.33425 23.9532 6.12057C24.1362 5.90689 24.2582 5.66268 24.3344 5.4032C24.4107 5.14373 24.4411 4.88425 24.4411 4.64004C24.4411 4.39583 24.4107 4.15162 24.3344 3.89215C24.2582 3.63268 24.1362 3.38846 23.9532 3.17478C23.7703 2.9611 23.5111 2.80846 23.1756 2.71689C23.0537 2.68636 22.9012 2.65583 22.7487 2.64057C22.5962 2.62531 22.459 2.62531 22.3218 2.62531H19.3638V6.67004ZM24.3039 13.4621L21.7119 8.08952L24.2734 7.6011L27.1247 13.4621H24.3039Z" fill="#1A4AB9"/>
<path d="M27.7041 13.4621L31.7294 0.27478H35.4497L39.4749 13.4621H36.9134L33.3303 1.83162H33.803L30.2656 13.4621H27.7041ZM30.1284 10.7148V8.39478H37.0811V10.7148H30.1284Z" fill="#1A4AB9"/>
<path d="M40.6033 13.4621V0.27478H46.1685C46.2905 0.27478 46.4734 0.27478 46.6869 0.290043C46.9004 0.305307 47.0986 0.32057 47.2663 0.351096C48.0591 0.473201 48.6995 0.732675 49.2027 1.12952C49.7058 1.52636 50.0718 2.01478 50.3157 2.62531C50.5597 3.22057 50.6664 3.89215 50.6664 4.64004C50.6664 5.37268 50.5444 6.04425 50.3005 6.65478C50.0565 7.25004 49.6906 7.75373 49.1874 8.15057C48.6843 8.53215 48.0439 8.79162 47.2663 8.91373C47.0986 8.94426 46.9004 8.95952 46.6869 8.97478C46.4734 8.99004 46.2905 8.99004 46.1685 8.99004H43.0886V13.4621H40.6033ZM43.0886 6.67004H46.0465C46.1685 6.67004 46.321 6.67004 46.4734 6.65478C46.6259 6.63952 46.7631 6.62425 46.9004 6.57847C47.2358 6.48689 47.495 6.33425 47.678 6.12057C47.8609 5.90689 47.9829 5.66268 48.0591 5.4032C48.1354 5.14373 48.1659 4.88425 48.1659 4.64004C48.1659 4.39583 48.1354 4.15162 48.0591 3.89215C47.9829 3.63268 47.8609 3.38846 47.678 3.17478C47.495 2.9611 47.2358 2.80846 46.9004 2.71689C46.7784 2.68636 46.6259 2.65583 46.4734 2.64057C46.321 2.62531 46.1837 2.62531 46.0465 2.62531H43.0886V6.67004Z" fill="#1A4AB9"/>
<path d="M55.0423 13.4621V2.59478H50.895V0.27478H61.69V2.59478H57.5428V13.4621H55.0423Z" fill="#1A4AB9"/>
<path d="M68.2921 13.7368C66.9809 13.7368 65.8373 13.4468 64.892 12.8821C63.9467 12.3174 63.1996 11.5084 62.6812 10.4705C62.1628 9.43263 61.9036 8.24211 61.9036 6.86842C61.9036 5.49474 62.1628 4.30421 62.6812 3.26632C63.1996 2.22842 63.9314 1.43474 64.892 0.854737C65.8526 0.274737 66.9656 0 68.2921 0C69.6034 0 70.7469 0.29 71.7075 0.854737C72.6681 1.43474 73.3999 2.22842 73.9183 3.26632C74.4368 4.30421 74.696 5.49474 74.696 6.86842C74.696 8.24211 74.4368 9.43263 73.9183 10.4705C73.3999 11.5084 72.6681 12.3021 71.7075 12.8821C70.7469 13.4468 69.6034 13.7368 68.2921 13.7368ZM68.2921 11.3863C69.1307 11.4016 69.8169 11.2184 70.381 10.8521C70.9299 10.4858 71.3568 9.95158 71.6313 9.26474C71.9057 8.5779 72.0429 7.78421 72.0429 6.86842C72.0429 5.95263 71.9057 5.15895 71.6313 4.48737C71.3568 3.81579 70.9299 3.29684 70.381 2.91526C69.8321 2.54895 69.1307 2.35053 68.2921 2.33526C67.4535 2.32 66.7674 2.50316 66.2033 2.86947C65.6544 3.23579 65.2275 3.77 64.953 4.45684C64.6786 5.14368 64.5413 5.93737 64.5413 6.85316C64.5413 7.76895 64.6786 8.56263 64.953 9.23421C65.2275 9.90579 65.6544 10.4247 66.2033 10.8063C66.7522 11.1879 67.4535 11.3863 68.2921 11.3863Z" fill="#1A4AB9"/>
<path d="M75.9919 13.4621V0.27478H81.5572C81.6791 0.27478 81.8621 0.27478 82.0756 0.290043C82.289 0.305307 82.4872 0.32057 82.655 0.351096C83.4478 0.473201 84.0882 0.732675 84.5914 1.12952C85.0945 1.52636 85.4604 2.03004 85.7044 2.62531C85.9484 3.22057 86.0551 3.89215 86.0551 4.64004C86.0551 5.73899 85.7806 6.68531 85.2317 7.47899C84.6828 8.25741 83.829 8.74583 82.655 8.92899L81.5572 9.00531H78.4772V13.4774H75.9919V13.4621ZM78.4772 6.67004H81.4352C81.5572 6.67004 81.7096 6.67004 81.8621 6.65478C82.0146 6.63952 82.1518 6.62425 82.289 6.57847C82.6245 6.48689 82.8837 6.33425 83.0666 6.12057C83.2496 5.90689 83.3716 5.66268 83.4478 5.4032C83.5241 5.14373 83.5545 4.88425 83.5545 4.64004C83.5545 4.39583 83.5241 4.15162 83.4478 3.89215C83.3716 3.63268 83.2496 3.38846 83.0666 3.17478C82.8837 2.9611 82.6245 2.80846 82.289 2.71689C82.1671 2.68636 82.0146 2.65583 81.8621 2.64057C81.7096 2.62531 81.5724 2.62531 81.4352 2.62531H78.4772V6.67004ZM83.4173 13.4621L80.8253 8.08952L83.3868 7.6011L86.2381 13.4621H83.4173Z" fill="#1A4AB9"/>
<path d="M21.8492 29C20.8734 29 19.989 28.8321 19.2114 28.4811C18.4338 28.13 17.7782 27.6416 17.275 27.0005C16.7719 26.3595 16.4517 25.5811 16.3145 24.6958L18.9065 24.3142C19.0894 25.0774 19.4706 25.6574 20.0348 26.0695C20.6142 26.4816 21.2545 26.68 21.9864 26.68C22.3981 26.68 22.7945 26.619 23.1757 26.4816C23.5569 26.3442 23.8771 26.1611 24.121 25.9169C24.365 25.6727 24.4869 25.3521 24.4869 24.9858C24.4869 24.8484 24.4717 24.7263 24.426 24.6042C24.3802 24.4821 24.3192 24.36 24.2277 24.2532C24.1363 24.1463 23.999 24.0395 23.8466 23.9479C23.6788 23.8563 23.4654 23.7648 23.2062 23.6884L19.8213 22.6658C19.5621 22.5895 19.2724 22.4827 18.937 22.3605C18.6015 22.2232 18.2661 22.04 17.9459 21.7805C17.6257 21.5363 17.3665 21.2005 17.153 20.7884C16.9396 20.3763 16.8329 19.8574 16.8329 19.2316C16.8329 18.3463 17.0616 17.6137 17.5037 17.0184C17.9459 16.4384 18.5405 15.9958 19.2877 15.7058C20.0348 15.4158 20.8581 15.2784 21.7577 15.2784C22.6725 15.2937 23.4806 15.4463 24.1973 15.7516C24.9139 16.0569 25.5085 16.4842 25.9964 17.049C26.4843 17.6137 26.8198 18.3158 27.0332 19.14L24.3497 19.5979C24.2582 19.1705 24.0753 18.8042 23.8161 18.5142C23.5569 18.2242 23.2367 17.9953 22.886 17.8427C22.5201 17.69 22.1389 17.6137 21.7425 17.5984C21.346 17.5832 20.9801 17.6442 20.6447 17.7511C20.294 17.8732 20.0195 18.0411 19.8061 18.27C19.5926 18.499 19.4859 18.7584 19.4859 19.079C19.4859 19.369 19.5774 19.5979 19.7451 19.7811C19.928 19.9642 20.1415 20.1016 20.4159 20.2237C20.6904 20.3305 20.9648 20.4221 21.2393 20.4984L23.5264 21.1242C23.8618 21.2158 24.243 21.3379 24.6547 21.4905C25.0663 21.6432 25.4628 21.8416 25.8439 22.1163C26.2251 22.3911 26.5453 22.7269 26.7893 23.1695C27.0332 23.6121 27.1552 24.1463 27.1552 24.8179C27.1552 25.52 27.0027 26.1458 26.713 26.6648C26.4233 27.199 26.0269 27.6263 25.5238 27.9774C25.0206 28.3284 24.4565 28.5879 23.8313 28.7558C23.1757 28.9084 22.5201 29 21.8492 29Z" fill="#1A4AB9"/>
<path d="M34.0012 28.9999C32.9339 28.9999 32.0038 28.7863 31.1957 28.3589C30.3876 27.9315 29.7624 27.321 29.305 26.5426C28.8476 25.7642 28.6342 24.8484 28.6342 23.7799V15.5531L31.1652 15.5378V23.7647C31.1652 24.1921 31.2414 24.5889 31.3786 24.9399C31.5311 25.291 31.7293 25.5963 31.9885 25.8557C32.2477 26.1152 32.5527 26.3136 32.8881 26.451C33.2388 26.5884 33.6047 26.6647 33.9859 26.6647C34.3823 26.6647 34.7635 26.5884 35.099 26.451C35.4496 26.3136 35.7393 26.1152 35.9985 25.8557C36.2578 25.5963 36.456 25.291 36.5932 24.9399C36.7304 24.5889 36.8066 24.1921 36.8066 23.7647V15.5378H39.3377V23.7799C39.3377 24.8331 39.109 25.7489 38.6668 26.5426C38.2094 27.321 37.5843 27.9315 36.7762 28.3589C35.9985 28.7863 35.0685 28.9999 34.0012 28.9999Z" fill="#1A4AB9"/>
<path d="M41.4114 28.7252V15.5378H46.9766C47.0986 15.5378 47.2815 15.5378 47.495 15.5531C47.7085 15.5684 47.9067 15.5836 48.0744 15.6142C48.8673 15.7363 49.5076 15.9957 50.0108 16.3926C50.5139 16.7894 50.8799 17.2931 51.1238 17.8884C51.3678 18.4836 51.4745 19.1552 51.4745 19.9031C51.4745 20.6357 51.3525 21.3073 51.1086 21.9178C50.8646 22.5131 50.4987 23.0168 49.9955 23.4136C49.4924 23.8105 48.852 24.0699 48.0744 24.1921C47.9067 24.2226 47.7085 24.2378 47.495 24.2531C47.2815 24.2684 47.0986 24.2684 46.9766 24.2684H43.8967V28.7405H41.4114V28.7252ZM43.8967 21.9331H46.8546C46.9766 21.9331 47.1291 21.9331 47.2815 21.9178C47.434 21.9026 47.5712 21.8873 47.7085 21.8415C48.0439 21.7499 48.3031 21.5973 48.4861 21.3836C48.669 21.1699 48.791 20.9257 48.8673 20.6663C48.9435 20.4068 48.974 20.1473 48.974 19.9031C48.974 19.6589 48.9435 19.4147 48.8673 19.1552C48.791 18.8957 48.669 18.6515 48.4861 18.4378C48.3031 18.2242 48.0439 18.0715 47.7085 17.9799C47.5865 17.9494 47.434 17.9189 47.2815 17.9036C47.1291 17.8884 46.9918 17.8884 46.8546 17.8884H43.8967V21.9331Z" fill="#1A4AB9"/>
<path d="M52.7858 28.7252V15.5378H58.351C58.473 15.5378 58.6559 15.5378 58.8694 15.5531C59.0829 15.5684 59.2811 15.5836 59.4488 15.6142C60.2416 15.7363 60.882 15.9957 61.3852 16.3926C61.8883 16.7894 62.2543 17.2931 62.4982 17.8884C62.7422 18.4836 62.8489 19.1552 62.8489 19.9031C62.8489 20.6357 62.7269 21.3073 62.483 21.9178C62.239 22.5131 61.8731 23.0168 61.3699 23.4136C60.8668 23.8105 60.2264 24.0699 59.4488 24.1921C59.2811 24.2226 59.0829 24.2378 58.8694 24.2531C58.6559 24.2684 58.473 24.2684 58.351 24.2684H55.2711V28.7405H52.7858V28.7252ZM55.2863 21.9331H58.2443C58.3662 21.9331 58.5187 21.9331 58.6712 21.9178C58.8237 21.9026 58.9609 21.8873 59.0981 21.8415C59.4335 21.7499 59.6927 21.5973 59.8757 21.3836C60.0587 21.1699 60.1807 20.9257 60.2569 20.6663C60.3331 20.4068 60.3636 20.1473 60.3636 19.9031C60.3636 19.6589 60.3331 19.4147 60.2569 19.1552C60.1807 18.8957 60.0587 18.6515 59.8757 18.4378C59.6927 18.2242 59.4335 18.0715 59.0981 17.9799C58.9761 17.9494 58.8237 17.9189 58.6712 17.9036C58.5187 17.8884 58.3815 17.8884 58.2443 17.8884H55.2863V21.9331Z" fill="#1A4AB9"/>
<path d="M64.3584 28.7252V15.5378H66.8437V26.4052H72.5156V28.7252H64.3584Z" fill="#1A4AB9"/>
<path d="M73.7354 28.7252V15.5378H76.2206V28.7252H73.7354Z" fill="#1A4AB9"/>
<path d="M78.462 28.7252V15.5378H87.0614V17.8578H80.9473V20.6815H85.9637V23.0015H80.9473V26.3899H87.0614V28.7099H78.462V28.7252Z" fill="#1A4AB9"/>
<path d="M93.7244 29C92.7486 29 91.8643 28.8321 91.0867 28.4811C90.3091 28.13 89.6534 27.6416 89.1503 27.0005C88.6471 26.3595 88.3269 25.5811 88.1897 24.6958L90.7817 24.3142C90.9647 25.0774 91.3459 25.6574 91.91 26.0695C92.4894 26.4816 93.1298 26.68 93.8617 26.68C94.2733 26.68 94.6698 26.619 95.0509 26.4816C95.4321 26.3442 95.7523 26.1611 95.9963 25.9169C96.2402 25.6726 96.3622 25.3521 96.3622 24.9858C96.3622 24.8484 96.3469 24.7263 96.3012 24.6042C96.2555 24.4821 96.1945 24.36 96.103 24.2532C96.0115 24.1463 95.8743 24.0395 95.7218 23.9479C95.5541 23.8563 95.3406 23.7648 95.0814 23.6884L91.6661 22.6811C91.4069 22.6048 91.1172 22.4979 90.7817 22.3758C90.4463 22.2384 90.1108 22.0553 89.7907 21.7958C89.4705 21.5516 89.2113 21.2158 88.9978 20.8037C88.7843 20.3916 88.6776 19.8726 88.6776 19.2469C88.6776 18.3616 88.9063 17.629 89.3485 17.0337C89.7907 16.4537 90.3853 16.0111 91.1324 15.7211C91.8795 15.4311 92.7029 15.2937 93.6025 15.2937C94.5173 15.309 95.3254 15.4616 96.042 15.7669C96.7586 16.0721 97.3533 16.4995 97.8412 17.0642C98.3291 17.629 98.6645 18.3311 98.878 19.1553L96.1945 19.6132C96.103 19.1858 95.92 18.8195 95.6608 18.5295C95.4016 18.2395 95.0814 18.0105 94.7307 17.8579C94.3648 17.7053 93.9836 17.629 93.5872 17.6137C93.1908 17.5984 92.8248 17.6595 92.4894 17.7663C92.1387 17.8884 91.8643 18.0563 91.6508 18.2853C91.4374 18.5142 91.3306 18.7737 91.3306 19.0942C91.3306 19.3842 91.4221 19.6132 91.5898 19.7963C91.7728 19.9795 91.9862 20.1169 92.2607 20.239C92.5351 20.3458 92.8096 20.4374 93.084 20.5137L95.3711 21.1395C95.7066 21.2311 96.0877 21.3532 96.4994 21.5058C96.9111 21.6584 97.3075 21.8569 97.6887 22.1316C98.0699 22.3911 98.3901 22.7421 98.634 23.1848C98.878 23.6274 99 24.1616 99 24.8332C99 25.5353 98.8475 26.1611 98.5578 26.68C98.2681 27.2142 97.8717 27.6416 97.3685 27.9926C96.8654 28.3437 96.3012 28.6032 95.6761 28.7711C95.0357 28.9084 94.3953 29 93.7244 29Z" fill="#1A4AB9"/>
<path d="M11.1152 27.6263L10.3528 23.7953C9.42273 23.429 8.55364 22.91 7.76079 22.2842L4.05572 23.49L1.26548 18.7585L4.19294 16.1637C4.04047 15.1716 4.04047 14.149 4.19294 13.1569L1.26548 10.5011L4.05572 5.7695L7.74554 7.02108C8.52315 6.38003 9.40748 5.87635 10.3376 5.51003L11.0999 1.63319H13.8902V0.320557H11.4201C11.0237 0.320557 10.612 0.442662 10.2918 0.702136C9.97163 0.961609 9.75817 1.31266 9.68193 1.7095L9.11779 4.54845L8.95007 4.62477C8.49265 4.85371 8.03524 5.09792 7.60831 5.38792L7.4406 5.49477L4.77234 4.53319C4.61987 4.50266 4.4369 4.47214 4.25393 4.4874C3.91849 4.4874 3.6288 4.56371 3.3696 4.71635C3.11039 4.86898 2.89693 5.08266 2.74446 5.34214L0.243922 9.57003C0.0457086 9.90582 -0.0305273 10.3179 0.0457086 10.7148C0.106697 11.1116 0.304911 11.4627 0.609855 11.7374L2.72921 13.6758V15.6142L0.609855 17.4916C0.289664 17.7663 0.0914502 18.1327 0.0304614 18.5295C-0.0305273 18.9263 0.0457086 19.3537 0.259169 19.7048L2.74446 23.9174C2.89693 24.1769 3.11039 24.4058 3.3696 24.5584C3.6288 24.7111 3.93374 24.7874 4.23869 24.7874H4.25393C4.4369 24.7874 4.61987 24.7569 4.80283 24.6958L7.53208 23.78L7.68455 23.8869C8.11147 24.1616 8.55364 24.4211 9.01106 24.65L9.14828 24.7111L9.72767 27.5348C9.80391 27.9316 10.0174 28.2979 10.3376 28.5421C10.6578 28.8016 11.0389 28.9542 11.4506 28.9237H13.8902V27.6263H11.1152Z" fill="#00B868"/>
<path d="M13.7834 19.2163C13.2193 19.2163 12.6704 19.1094 12.1367 18.8957C11.5726 18.6668 11.0694 18.331 10.6425 17.9036C10.2156 17.4763 9.88013 16.9726 9.65143 16.4078C9.42272 15.8431 9.31599 15.2478 9.33124 14.6373C9.31599 14.0268 9.42272 13.4315 9.65143 12.8668C9.88013 12.3021 10.2156 11.7984 10.6425 11.371C11.0694 10.9436 11.5726 10.6078 12.152 10.3789C12.7161 10.15 13.3108 10.0431 13.9054 10.0584V8.69995C13.5242 8.69995 13.1278 8.73048 12.7466 8.82206C11.5878 9.03574 10.5358 9.60048 9.71241 10.44C8.87382 11.2642 8.30967 12.3173 8.08097 13.4773C7.85226 14.6373 7.97424 15.8126 8.4164 16.9115C8.87382 17.9952 9.62093 18.9263 10.5968 19.5826C11.5726 20.2389 12.7161 20.5747 13.8901 20.5747V19.2163C13.8596 19.2163 13.8292 19.2163 13.7834 19.2163Z" fill="#00B868"/>
</svg>
